<svg width="18" height="18" viewBox="0 0 18 18" fill="none" xmlns="http://www.w3.org/2000/svg">
<path d="M3.03324 0.000244141C2.44079 0.000244141 1.93298 0.211829 1.5098 0.635007C1.08662 1.04125 0.875031 1.54907 0.875031 2.15844C0.875031 2.75089 1.08662 3.2587 1.5098 3.68188C1.93298 4.10506 2.43233 4.31664 3.00784 4.31664C3.60028 4.31664 4.10812 4.10506 4.53131 3.68188C4.9545 3.2587 5.16609 2.75089 5.16609 2.15844C5.16609 1.56599 4.9545 1.05818 4.53131 0.635007C4.125 0.211829 3.62568 0.000244141 3.03324 0.000244141ZM13.4942 5.68778C12.6648 5.68778 11.9453 5.8824 11.336 6.27174C10.8451 6.59331 10.4557 7.02502 10.168 7.56662H10.1172V5.94165H6.5625V17.8753H10.2696V11.9592C10.2696 11.316 10.3034 10.8251 10.3711 10.4866C10.4727 9.97871 10.6589 9.5979 10.9297 9.34403C11.2513 9.05621 11.7083 8.91231 12.3008 8.91231C12.8932 8.91231 13.3418 9.08162 13.6465 9.42015C13.9004 9.69099 14.0697 10.0972 14.1544 10.6389C14.2051 10.9606 14.2305 11.4345 14.2305 12.0608V17.8753H17.9376V11.3245C17.9376 10.1226 17.8275 9.15784 17.6075 8.42996C17.3536 7.54974 16.9219 6.88112 16.3125 6.42409C15.6354 5.93321 14.696 5.68778 13.4942 5.68778ZM1.17972 5.94165V17.8753H4.88671V5.94165H1.17972Z" fill="white"/>
</svg>
