<svg width="18" height="18" viewBox="0 0 18 18" fill="none" xmlns="http://www.w3.org/2000/svg">
<path d="M3.03321 0.00012207C2.44076 0.00012207 1.93295 0.211707 1.50977 0.634885C1.08659 1.04113 0.875 1.54895 0.875 2.15832C0.875 2.75077 1.08659 3.25858 1.50977 3.68176C1.93295 4.10494 2.4323 4.31652 3.00781 4.31652C3.60025 4.31652 4.10809 4.10494 4.53128 3.68176C4.95447 3.25858 5.16606 2.75077 5.16606 2.15832C5.16606 1.56587 4.95447 1.05806 4.53128 0.634885C4.12497 0.211707 3.62565 0.00012207 3.03321 0.00012207ZM13.4942 5.68765C12.6647 5.68765 11.9453 5.88228 11.3359 6.27162C10.8451 6.59318 10.4557 7.0249 10.168 7.5665H10.1172V5.94153H6.56246V17.8752H10.2695V11.9591C10.2695 11.3158 10.3034 10.825 10.3711 10.4864C10.4727 9.97859 10.6589 9.59778 10.9297 9.3439C11.2513 9.05609 11.7083 8.91218 12.3008 8.91218C12.8932 8.91218 13.3418 9.0815 13.6465 9.42003C13.9004 9.69087 14.0697 10.0971 14.1543 10.6388C14.2051 10.9604 14.2305 11.4343 14.2305 12.0607V17.8752H17.9375V11.3244C17.9375 10.1225 17.8275 9.15772 17.6074 8.42984C17.3536 7.54962 16.9218 6.881 16.3125 6.42397C15.6354 5.93309 14.6959 5.68765 13.4942 5.68765ZM1.17969 5.94153V17.8752H4.88668V5.94153H1.17969Z" fill="#004CCA"/>
</svg>
